<svg xmlns="http://www.w3.org/2000/svg" width="2092.079" height="277.957" viewBox="0 0 2092.079 277.957">
  <g id="Group_25" data-name="Group 25" transform="translate(-235.501 -308.909)">
    <path id="Path_388" data-name="Path 388" d="M-561.1-276.659q17.521.433,25.849,8.869t78.412,78.3q69.219-69.219,77.871-78.2t25.741-8.977q34.393.216,34.609,34.393l.216,207.656Q-318.406,0-353.448.433q-34.177-.216-34.826-35.042V-156.824q-34.826,35.691-43.37,44.451t-25.633,8.76q-16.656,0-25.524-8.977t-43.478-43.586V-34.609Q-526.5-.216-560.888,0-595.714.216-595.5-34.609V-242.266Q-595.5-276.659-561.1-276.659Zm308.023.216q34.609.216,35.258,34.177V-34.177Q-218.255.216-252.648.865-287.258,0-287.258-34.177V-242.049Q-287.474-276.442-253.081-276.442Zm105.559,0q18.819,1.514,30.067,14.276L-13.844-130V-246.159q.649-29.634,29.418-30.283,38.936.649,39.368,31.148l.216,215.227Q54.942-.433,15.574,0-2.163-.216-13.411-14.276L-117.456-146.008V-30.067Q-117.672-.216-147.522,0q-39.152,0-39.368-30.5V-246.375Q-186.891-276.226-147.522-276.442Zm268.006-.649,175.21.433q32.23.433,32.446,33.528,0,35.258-35.042,35.907H155.31V-69.435H292.882q34.826.216,34.826,35.042,0,33.96-34.177,34.393H120.484Q86.091,0,85.875-33.528V-242.049Q86.091-276.442,120.484-277.091Zm51.481,139.519q.216-34.609,34.177-35.042h69.651Q310.4-172.4,310.835-138q-.649,34.609-35.042,34.609H206.358Q171.965-103.179,171.965-137.572ZM390.653-277.091l175.21.433q32.23.433,32.446,33.528,0,35.258-35.042,35.907h-51.7l.216,172.831Q511.354-.433,476.96,0q-34.609,0-34.609-33.528l.216-173.7H390.653q-34.609,0-34.609-34.826Q356.26-276.442,390.653-277.091Z" transform="translate(831 586)" fill="#69e"/>
    <path id="Path_389" data-name="Path 389" d="M-391.424-179.2h18.944V-16.384h100.352V0h-119.3ZM-62.72-16.384V0H-189.44V-179.2H-66.56v16.384H-170.5v63.744h92.672v16.128H-170.5v66.56ZM182.784-179.2V0H167.168L51.968-145.408V0H33.024V-179.2H48.64L164.1-33.792V-179.2ZM341.76,1.536a115.114,115.114,0,0,1-38.272-6.4q-18.3-6.4-28.288-16.9l7.424-14.592q9.728,9.728,25.856,15.744a94.479,94.479,0,0,0,33.28,6.016q24.064,0,36.1-8.832t12.032-22.912q0-10.752-6.528-17.152a44.069,44.069,0,0,0-16-9.856A258.761,258.761,0,0,0,340.992-80.9a277.029,277.029,0,0,1-32.256-9.856,52.962,52.962,0,0,1-20.608-14.464q-8.576-9.728-8.576-26.368a44.694,44.694,0,0,1,7.168-24.7q7.168-11.136,22.016-17.792t36.864-6.656a108.524,108.524,0,0,1,30.08,4.224,86.444,86.444,0,0,1,25.472,11.648l-6.4,15.1A88.084,88.084,0,0,0,370.688-160.9a89.816,89.816,0,0,0-25.088-3.712q-23.552,0-35.456,9.088T298.24-132.1q0,10.752,6.528,17.28a42.763,42.763,0,0,0,16.384,9.984q9.856,3.456,26.5,7.552a266.574,266.574,0,0,1,31.872,9.6,52.312,52.312,0,0,1,20.608,14.336q8.448,9.6,8.448,25.984a44.124,44.124,0,0,1-7.3,24.7q-7.3,11.136-22.4,17.664T341.76,1.536Z" transform="translate(1919.004 552.972)"/>
  </g>
</svg>
