<svg xmlns="http://www.w3.org/2000/svg" width="708.775" height="160.243" viewBox="0 0 708.775 160.243"><g id="Group_2" data-name="Group 2" transform="translate(-606.023 -513.439)"><g id="Group_1" data-name="Group 1"><path id="Path_91" fill="#222" d="M-353.556-48.3h5.8l16.629,26.979,16.56-26.979h5.589V0h-5.8V-37.812l-16.491,26.841L-347.76-37.743V0h-5.8Zm67.275,15.594q6.624,0,10.246,3.45a11.031,11.031,0,0,1,3.622,8.28V0h-5.313V-4.623q-.138.207-.414.587a11.028,11.028,0,0,1-1.311,1.311,16.446,16.446,0,0,1-2.173,1.656A12.722,12.722,0,0,1-284.66.242a13.127,13.127,0,0,1-3.9.587,12.568,12.568,0,0,1-8.245-3,9.758,9.758,0,0,1-3.622-7.9,9.51,9.51,0,0,1,3.588-7.624,13.608,13.608,0,0,1,9.039-3,18.761,18.761,0,0,1,5,.656,16.533,16.533,0,0,1,3.484,1.276l1.1.69V-19.8a8.361,8.361,0,0,0-.862-3.968,5.2,5.2,0,0,0-2.243-2.312,11.65,11.65,0,0,0-2.587-.966,10.659,10.659,0,0,0-2.38-.276,16.245,16.245,0,0,0-4.52.69,20.45,20.45,0,0,0-3.691,1.38l-1.311.621-2.415-4.83q.552-.345,1.587-.9a25.414,25.414,0,0,1,4.14-1.449A22.281,22.281,0,0,1-286.281-32.706Zm-1.035,28.428a10.028,10.028,0,0,0,4.761-1.207,11.837,11.837,0,0,0,3.312-2.381l1.035-1.242v-4.485a14.013,14.013,0,0,0-8.349-2.277,9.686,9.686,0,0,0-5.865,1.621,4.967,4.967,0,0,0-2.208,4.174,4.9,4.9,0,0,0,2.139,4.347A9.008,9.008,0,0,0-287.316-4.278Zm36.984-28.428a14.153,14.153,0,0,1,3.76.483,11.484,11.484,0,0,1,2.9,1.173,16.01,16.01,0,0,1,2,1.414,11.418,11.418,0,0,1,1.277,1.208l.345.483V-52.164h5.8V0h-5.313V-4.623q-.138.207-.38.587a9.383,9.383,0,0,1-1.207,1.311,14.207,14.207,0,0,1-2.07,1.656A11.94,11.94,0,0,1-246.261.242a13.939,13.939,0,0,1-4.071.587A14.353,14.353,0,0,1-261.3-4.036a16.914,16.914,0,0,1-4.485-11.9,16.914,16.914,0,0,1,4.485-11.9A14.353,14.353,0,0,1-250.332-32.706Zm10.281,22.632V-21.8q-.138-.207-.38-.587a13.2,13.2,0,0,0-1.1-1.345,11.683,11.683,0,0,0-1.863-1.691,10.686,10.686,0,0,0-2.622-1.311,9.964,9.964,0,0,0-3.415-.587,9.753,9.753,0,0,0-7.625,3.278,11.714,11.714,0,0,0-2.932,8.108,11.8,11.8,0,0,0,2.9,8.107,9.726,9.726,0,0,0,7.659,3.278,10.525,10.525,0,0,0,3.415-.552,8.723,8.723,0,0,0,2.656-1.38,18.766,18.766,0,0,0,1.829-1.656,9.235,9.235,0,0,0,1.139-1.38Zm29.6-22.632a14.581,14.581,0,0,1,11.143,4.692q4.382,4.692,4.382,12.282,0,1.1-.069,1.863h-25.737a9.487,9.487,0,0,0,3.415,6.52,10.972,10.972,0,0,0,7.556,2.795,11.689,11.689,0,0,0,5.175-1.173,11.107,11.107,0,0,0,3.45-2.346l.966-1.173,3.657,3.8q-.207.276-.587.69a21.043,21.043,0,0,1-1.656,1.484,19.612,19.612,0,0,1-2.691,1.9A17.388,17.388,0,0,1-205.137.138a15.858,15.858,0,0,1-4.623.69A15.957,15.957,0,0,1-221.663-4a16.4,16.4,0,0,1-4.726-11.937,16.955,16.955,0,0,1,4.45-11.937A14.912,14.912,0,0,1-210.45-32.706ZM-220.593-18.7h20.01a9.382,9.382,0,0,0-2.829-5.865,9.25,9.25,0,0,0-7.038-2.76,9.352,9.352,0,0,0-7.176,2.726A10.568,10.568,0,0,0-220.593-18.7Zm47.748-13.179h6.279l8.556,20.631,8.418-20.631h3.933l8.487,20.631,8.487-20.631h5.934L-137.31,1.38-147.8-22.563-158.286,1.38ZM-116.748,0V-31.878h5.8V0Zm.138-39.33a3.777,3.777,0,0,1-1.173-2.76,3.777,3.777,0,0,1,1.173-2.76,3.777,3.777,0,0,1,2.76-1.173,3.777,3.777,0,0,1,2.76,1.173,3.777,3.777,0,0,1,1.173,2.76,3.777,3.777,0,0,1-1.173,2.76,3.777,3.777,0,0,1-2.76,1.173A3.777,3.777,0,0,1-116.61-39.33Zm12.765,12.7v-5.244h6.21v-9.729h5.8v9.729H-81.9v5.244h-9.936V-9.453q0,4.9,4.623,4.9A4.8,4.8,0,0,0-85.491-4.9a10.526,10.526,0,0,0,1.38-.621l.552-.345L-81.42-1.1A13.847,13.847,0,0,1-88.044.828a9.785,9.785,0,0,1-6.728-2.553q-2.864-2.553-2.864-7.452V-26.634Zm45.126-6.072A11.975,11.975,0,0,1-50.2-29.429a11.676,11.676,0,0,1,3.485,8.935V0h-5.8V-19.527a7.531,7.531,0,0,0-2.139-5.83,7.836,7.836,0,0,0-5.52-1.967,7.294,7.294,0,0,0-2.794.552,7.846,7.846,0,0,0-2.243,1.345,17.207,17.207,0,0,0-1.587,1.587,11.272,11.272,0,0,0-1.035,1.346l-.276.552V0h-5.8V-52.164h5.8v24.15A10.81,10.81,0,0,1-58.719-32.706Zm134.757,0a14.353,14.353,0,0,1,10.971,4.865,16.914,16.914,0,0,1,4.485,11.9,16.914,16.914,0,0,1-4.485,11.9A14.353,14.353,0,0,1,76.038.828a13.113,13.113,0,0,1-6.072-1.38,10.008,10.008,0,0,1-3.657-2.76L65.274-4.623V0H59.961V-52.164h5.8v24.219q.138-.207.38-.517A10.639,10.639,0,0,1,67.344-29.6,13.68,13.68,0,0,1,69.38-31.05a12.957,12.957,0,0,1,2.864-1.138A13.628,13.628,0,0,1,76.038-32.706ZM65.757-21.8v11.73q.138.207.38.587a13.2,13.2,0,0,0,1.1,1.345A11.684,11.684,0,0,0,69.1-6.452a10.686,10.686,0,0,0,2.622,1.311,9.964,9.964,0,0,0,3.415.587A9.726,9.726,0,0,0,82.8-7.832a11.8,11.8,0,0,0,2.9-8.107,11.714,11.714,0,0,0-2.933-8.108,9.753,9.753,0,0,0-7.625-3.278,10.525,10.525,0,0,0-3.415.552,8.723,8.723,0,0,0-2.657,1.38,18.766,18.766,0,0,0-1.828,1.656,9.236,9.236,0,0,0-1.139,1.38ZM95.565,14.421,98.049,9.66a6.094,6.094,0,0,0,3.795,1.656,3.686,3.686,0,0,0,2.864-1.173,12.764,12.764,0,0,0,2.1-3.726L109.3.138l-14.9-32.016h6.555L112.125-6.693l9.522-25.185h6.279q-16.008,40.3-16.767,42.159a10.163,10.163,0,0,1-3.691,4.83,9.09,9.09,0,0,1-5.141,1.587,10.942,10.942,0,0,1-3.415-.552,10.738,10.738,0,0,1-2.519-1.1ZM148.074,0l18.975-48.3h5.382L191.268,0H185.2l-5.037-13.041H159.321L154.284,0ZM169.74-40.02l-8.28,21.459h16.56Zm40.779,7.314a12.9,12.9,0,0,1,2.311.207,13.531,13.531,0,0,1,1.76.414l.552.207L213-26.634a7.7,7.7,0,0,0-3.657-.69,6.656,6.656,0,0,0-4.036,1.346,9.261,9.261,0,0,0-2.587,2.656l-.69,1.38V0h-5.8V-31.878h5.382v4.9a6.138,6.138,0,0,0,.345-.621A8.508,8.508,0,0,1,203-28.98a13.807,13.807,0,0,1,1.76-1.725,9.549,9.549,0,0,1,2.484-1.38A8.743,8.743,0,0,1,210.519-32.706Zm25.6,0a11.975,11.975,0,0,1,8.521,3.278,11.676,11.676,0,0,1,3.484,8.935V0h-5.8V-19.527a7.531,7.531,0,0,0-2.139-5.83,7.836,7.836,0,0,0-5.52-1.967,7.294,7.294,0,0,0-2.795.552,7.846,7.846,0,0,0-2.242,1.345,17.207,17.207,0,0,0-1.587,1.587,11.271,11.271,0,0,0-1.035,1.346l-.276.552V0h-5.8V-52.164h5.8v24.15A10.81,10.81,0,0,1,236.118-32.706Zm33.465,0q6.624,0,10.246,3.45a11.031,11.031,0,0,1,3.622,8.28V0h-5.313V-4.623q-.138.207-.414.587a11.028,11.028,0,0,1-1.311,1.311,16.446,16.446,0,0,1-2.173,1.656A12.722,12.722,0,0,1,271.2.242a13.127,13.127,0,0,1-3.9.587,12.568,12.568,0,0,1-8.245-3,9.758,9.758,0,0,1-3.623-7.9,9.51,9.51,0,0,1,3.588-7.624,13.608,13.608,0,0,1,9.039-3,18.761,18.761,0,0,1,5,.656,16.533,16.533,0,0,1,3.484,1.276l1.1.69V-19.8a8.361,8.361,0,0,0-.862-3.968,5.2,5.2,0,0,0-2.243-2.312,11.65,11.65,0,0,0-2.587-.966,10.659,10.659,0,0,0-2.38-.276,16.245,16.245,0,0,0-4.52.69,20.45,20.45,0,0,0-3.691,1.38l-1.311.621-2.415-4.83q.552-.345,1.587-.9a25.414,25.414,0,0,1,4.14-1.449A22.281,22.281,0,0,1,269.583-32.706ZM268.548-4.278a10.028,10.028,0,0,0,4.761-1.207,11.837,11.837,0,0,0,3.312-2.381l1.035-1.242v-4.485a14.013,14.013,0,0,0-8.349-2.277,9.686,9.686,0,0,0-5.865,1.621,4.967,4.967,0,0,0-2.208,4.174,4.9,4.9,0,0,0,2.139,4.347A9.008,9.008,0,0,0,268.548-4.278Zm36.363-28.428q6.624,0,10.246,3.45a11.031,11.031,0,0,1,3.622,8.28V0h-5.313V-4.623q-.138.207-.414.587a11.028,11.028,0,0,1-1.311,1.311,16.446,16.446,0,0,1-2.173,1.656A12.722,12.722,0,0,1,306.533.242a13.127,13.127,0,0,1-3.9.587,12.568,12.568,0,0,1-8.245-3,9.758,9.758,0,0,1-3.622-7.9,9.51,9.51,0,0,1,3.588-7.624,13.608,13.608,0,0,1,9.039-3,18.761,18.761,0,0,1,5,.656,16.533,16.533,0,0,1,3.484,1.276l1.1.69V-19.8a8.361,8.361,0,0,0-.862-3.968,5.2,5.2,0,0,0-2.243-2.312,11.65,11.65,0,0,0-2.587-.966,10.659,10.659,0,0,0-2.38-.276,16.245,16.245,0,0,0-4.52.69,20.45,20.45,0,0,0-3.691,1.38l-1.311.621-2.415-4.83q.552-.345,1.587-.9a25.414,25.414,0,0,1,4.14-1.449A22.281,22.281,0,0,1,304.911-32.706ZM303.876-4.278a10.028,10.028,0,0,0,4.761-1.207,11.837,11.837,0,0,0,3.312-2.381l1.035-1.242v-4.485a14.013,14.013,0,0,0-8.349-2.277,9.686,9.686,0,0,0-5.865,1.621,4.967,4.967,0,0,0-2.208,4.174A4.9,4.9,0,0,0,298.7-5.727,9.008,9.008,0,0,0,303.876-4.278Zm38.916-28.428a11.975,11.975,0,0,1,8.521,3.278,11.676,11.676,0,0,1,3.484,8.935V0H349V-19.527a7.531,7.531,0,0,0-2.139-5.83,7.836,7.836,0,0,0-5.52-1.967,7.294,7.294,0,0,0-2.794.552,7.846,7.846,0,0,0-2.243,1.345,17.207,17.207,0,0,0-1.587,1.587,11.274,11.274,0,0,0-1.035,1.346l-.276.552V0h-5.8V-31.878h5.382v4.485q.138-.207.379-.587a10.272,10.272,0,0,1,1.1-1.277,11.389,11.389,0,0,1,1.9-1.587,11.991,11.991,0,0,1,2.76-1.277A11.284,11.284,0,0,1,342.792-32.706Z" data-name="Path 91" transform="translate(960 567)"/><path id="iconmonstr-favorite-1" fill="#f66060" d="M33.564,10.608C28-4.493,0-2.25,0,20.588,0,31.966,8.559,47.106,33.564,62.535,58.57,47.106,67.128,31.966,67.128,20.588c0-22.706-27.97-25.17-33.564-9.98Z" transform="translate(932.904 512.439)"/></g><path id="Path_92" fill="#69e" d="M11-53.692q4.064.1,6,2.057T35.185-33.471Q51.241-49.527,53.248-51.609t5.971-2.082q7.978.05,8.028,7.978L67.3,2.454q0,8.028-8.128,8.128-7.928-.05-8.078-8.128V-25.895L41.031-15.584q-1.982,2.032-5.946,2.032a7.957,7.957,0,0,1-5.921-2.082q-2.057-2.082-10.085-10.11v28.2q-.05,7.978-8.028,8.028-8.078.05-8.028-8.028V-45.714Q3.023-53.692,11-53.692Zm71.448.05q8.028.05,8.178,7.928V2.554q-.1,7.978-8.078,8.128-8.028-.2-8.028-8.128V-45.664Q74.472-53.641,82.45-53.641Zm24.485,0a9.963,9.963,0,0,1,6.974,3.312l24.034,30.657V-46.617q.151-6.874,6.824-7.024,9.031.151,9.132,7.225l.05,49.924q-.05,6.874-9.182,6.974a8.364,8.364,0,0,1-6.723-3.312L113.909-23.386V3.507q-.05,6.924-6.974,6.974-9.082,0-9.132-7.075V-46.667Q97.8-53.591,106.935-53.641Zm62.166-.151,40.641.1q7.476.1,7.526,7.777,0,8.178-8.128,8.329H177.179V-5.624H209.09q8.078.05,8.078,8.128,0,7.877-7.928,7.978H169.1q-7.978,0-8.028-7.777V-45.664Q161.123-53.641,169.1-53.792Zm11.942,32.363q.05-8.028,7.928-8.128h16.156q8.028.05,8.128,8.028Q213.1-13.5,205.126-13.5H189.02Q181.043-13.452,181.043-21.429Zm50.726-32.363,40.641.1q7.476.1,7.526,7.777,0,8.178-8.128,8.329H259.816l.05,40.089q-.1,7.877-8.078,7.978-8.028,0-8.028-7.777l.05-40.29H231.769q-8.028,0-8.028-8.078Q223.791-53.641,231.769-53.792Z" data-name="Path 92" transform="translate(603 663)"/></g></svg>