<svg xmlns="http://www.w3.org/2000/svg" width="4741.551" height="1290.889" viewBox="0 0 4741.551 1290.889">
  <g id="Group_4" data-name="Group 4" transform="translate(-1293.759 -8786.512)">
    <path id="Path_94" data-name="Path 94" d="M33.3,0V-315H136.8q46.8,0,75.6,27.45t28.8,70.65q0,36-18.45,60.975T171-122.4L249.75,0h-63l-74.7-118.8H87.3V0Zm96.75-170.1q26.55,0,41.4-11.925T186.3-216.9q0-22.95-14.85-34.875T130.05-263.7H87.3v93.6Zm310.5-93.6v76.5h126v51.3h-126v84.6h139.5V0H386.55V-315h190.8v51.3ZM864.9-45a111.614,111.614,0,0,0,29.925-4.05Q909.45-53.1,918.9-58.725a182.922,182.922,0,0,0,16.875-11.25Q943.2-75.6,946.35-79.65l3.6-4.05,36,35.55q-1.8,2.25-4.95,5.85T966.375-29.475a157.678,157.678,0,0,1-24.525,16.2Q928.8-6.3,908.1-.45A158.093,158.093,0,0,1,864.9,5.4q-68.4,0-114.075-46.575T705.15-157.5q0-69.75,45.675-116.325T864.9-320.4a161.273,161.273,0,0,1,40.95,5.175q19.8,5.175,32.85,12.375a240.821,240.821,0,0,1,23.175,14.4A123.051,123.051,0,0,1,976.95-276.3l4.5,5.4L945-235.35q-1.35-1.35-3.375-3.825t-9.9-8.325A125.647,125.647,0,0,0,915.3-257.85a114.914,114.914,0,0,0-22.275-8.325A104.279,104.279,0,0,0,864.9-270q-45.45,0-75.15,32.85t-29.7,79.65q0,46.8,29.7,79.65T864.9-45ZM1118.25,0V-315h103.5q46.8,0,75.6,27.45t28.8,70.65q0,36-18.45,60.975T1255.95-122.4L1334.7,0h-63L1197-118.8h-24.75V0ZM1215-170.1q26.55,0,41.4-11.925t14.85-34.875q0-22.95-14.85-34.875T1215-263.7h-42.75v93.6Zm445.5,49.05V-315h54v200.7q0,52.65-33.3,86.175T1593,5.4q-54.9,0-88.2-33.525T1471.5-114.3V-315h54v193.95q0,34.65,17.325,54.9T1593-45.9q32.85,0,50.175-20.25T1660.5-121.05ZM1878.3,0V-315h54V0Zm277.65,0V-263.7H2069.1V-315h227.7v51.3h-86.85V0ZM2427.3-315h49.95l102.6,158.4L2682.45-315h49.95V0h-54V-211.5L2579.85-61.65,2481.3-211.5V0h-54Zm516.6,51.3v76.5h126v51.3h-126v84.6h139.5V0H2889.9V-315h190.8v51.3ZM3226.5-315h48.6L3432.6-98.1V-315h54V0H3438L3280.5-216.45V0h-54ZM3703.95,0V-263.7H3617.1V-315h227.7v51.3h-86.85V0ZM4132.8-82.35q0-18.45-13.05-28.125T4075.2-131.4a333.134,333.134,0,0,1-35.325-14.625,200.9,200.9,0,0,1-30.825-19.125,78.572,78.572,0,0,1-24.075-28.575,83.767,83.767,0,0,1-8.325-37.575q0-35.1,28.8-62.1t74.25-27a124.325,124.325,0,0,1,35.775,5.175q17.325,5.175,28.8,12.6T4164.75-288q9,7.2,13.05,12.6l4.5,4.95-37.35,36.9q-.9-1.35-2.925-3.825a98.484,98.484,0,0,0-8.775-8.55,127.153,127.153,0,0,0-13.725-10.8,77.64,77.64,0,0,0-18-8.55A66.277,66.277,0,0,0,4079.7-269.1q-20.25,0-34.2,11.025T4031.55-231.3q0,12.6,9.225,22.275t18.675,13.95q9.45,4.275,36.9,14.625,2.25.9,3.15,1.35a314.525,314.525,0,0,1,34.65,14.85,145.311,145.311,0,0,1,27.225,18.45,70.174,70.174,0,0,1,19.8,27q6.525,15.75,6.525,36.45,0,41.4-31.5,64.575T4077.9,5.4a134.95,134.95,0,0,1-42.075-6.525Q4015.8-7.65,4003.2-17.1a207.589,207.589,0,0,1-22.275-19.125Q3971.25-45.9,3967.2-52.2l-4.5-6.75,40.5-34.2a40.583,40.583,0,0,0,3.15,4.95q2.25,3.15,9.45,11.475a98.1,98.1,0,0,0,15.3,14.4,94.248,94.248,0,0,0,20.7,11.25,68.067,68.067,0,0,0,26.1,5.175q22.5,0,38.7-9.225T4132.8-82.35Z" transform="translate(1262 10072)" fill="#717171"/>
    <g id="Group_3" data-name="Group 3" transform="translate(1039 8322)">
      <path id="Path_95" data-name="Path 95" d="M-1266.6-624.512q39.551.977,58.35,20.02t177,176.758Q-875-583.984-855.469-604.248t58.105-20.264q77.637.488,78.125,77.637l.488,468.75q0,78.125-79.1,79.1Q-875,.488-876.465-78.125V-354q-78.613,80.566-97.9,100.342t-57.861,19.775q-37.6,0-57.617-20.264t-98.145-98.389V-78.125Q-1188.477-.488-1266.113,0q-78.613.488-78.125-78.125v-468.75Q-1344.238-624.512-1266.6-624.512Zm695.313.488q78.125.488,79.59,77.148V-77.148q-.977,77.637-78.613,79.1Q-648.437,0-648.437-77.148V-546.387Q-648.926-624.023-571.289-624.023Zm238.281,0q42.48,3.418,67.871,32.227L-31.25-293.457V-555.664q1.465-66.894,66.406-68.359,87.891,1.465,88.867,70.313l.488,485.84Q124.023-.977,35.156,0-4.883-.488-30.273-32.227L-265.137-329.59V-67.871Q-265.625-.488-333.008,0q-88.379,0-88.867-68.848v-487.3Q-421.875-623.535-333.008-624.023Zm604.98-1.465,395.508.977q72.754.977,73.242,75.684,0,79.59-79.1,81.055H350.586v311.035H661.133q78.613.488,78.613,79.1Q739.746-.977,662.6,0H271.973q-77.637,0-78.125-75.684v-470.7Q194.336-624.023,271.973-625.488ZM388.184-310.547q.488-78.125,77.148-79.1H622.559q78.125.488,79.1,78.125Q700.2-233.4,622.559-233.4H465.82Q388.184-232.91,388.184-310.547ZM881.836-625.488l395.508.977q72.754.977,73.242,75.684,0,79.59-79.1,81.055h-116.7l.488,390.137Q1154.3-.977,1076.66,0q-78.125,0-78.125-75.684l.488-392.09H881.836q-78.125,0-78.125-78.613Q804.2-624.023,881.836-625.488Z" transform="translate(1599 1090)" fill="#69e"/>
      <path id="Path_96" data-name="Path 96" d="M-886.82-406h42.92V-37.12h227.36V0H-886.82ZM-142.1-37.12V0H-429.2V-406h278.4v37.12H-386.28v144.42h209.96v36.54H-386.28v150.8ZM414.12-406V0H378.74l-261-329.44V0H74.82V-406H110.2L371.78-76.56V-406ZM774.3,3.48a260.806,260.806,0,0,1-86.71-14.5Q646.12-25.52,623.5-49.3l16.82-33.06q22.04,22.04,58.58,35.67a214.053,214.053,0,0,0,75.4,13.63q54.52,0,81.78-20.01t27.26-51.91q0-24.36-14.79-38.86T832.3-166.17q-21.46-7.83-59.74-17.11-45.82-11.6-73.08-22.33a119.992,119.992,0,0,1-46.69-32.77q-19.43-22.04-19.43-59.74a101.261,101.261,0,0,1,16.24-55.97q16.24-25.23,49.88-40.31T783-409.48a245.874,245.874,0,0,1,68.15,9.57q33.35,9.57,57.71,26.39l-14.5,34.22a199.568,199.568,0,0,0-54.52-25.23A203.488,203.488,0,0,0,783-372.94q-53.36,0-80.33,20.59T675.7-299.28q0,24.36,14.79,39.15t37.12,22.62q22.33,7.83,60.03,17.11,44.66,11.02,72.21,21.75a118.52,118.52,0,0,1,46.69,32.48q19.14,21.75,19.14,58.87a99.967,99.967,0,0,1-16.53,55.97Q892.62-26.1,858.4-11.31T774.3,3.48Z" transform="translate(4070.63 1018.014)"/>
    </g>
  </g>
</svg>
